<?xml version="1.0" standalone="no"?>
<!DOCTYPE svg PUBLIC "-//W3C//DTD SVG 20010904//EN"
 "http://www.w3.org/TR/2001/REC-SVG-20010904/DTD/svg10.dtd">
<svg version="1.0" xmlns="http://www.w3.org/2000/svg"
 width="512.000000pt" height="512.000000pt" viewBox="0 0 512.000000 512.000000"
 preserveAspectRatio="xMidYMid meet">

<g transform="translate(0.000000,512.000000) scale(0.100000,-0.100000)"
fill="#000000" stroke="none">
<path d="M2340 5109 c-896 -91 -1640 -735 -1865 -1613 -47 -183 -68 -337 -69
-502 -1 -136 0 -141 26 -181 41 -63 90 -88 169 -88 54 0 72 5 106 27 71 47 85
81 94 236 11 170 24 261 54 382 87 349 247 627 504 872 303 290 698 456 1131
475 300 13 580 -47 855 -183 460 -227 791 -647 920 -1164 30 -122 43 -212 54
-383 7 -122 11 -141 34 -176 40 -61 90 -86 168 -86 54 0 72 5 106 27 88 58
104 128 84 359 -47 532 -263 1006 -630 1379 -447 453 -1098 684 -1741 619z"/>
<path d="M452 2380 c-109 -29 -187 -74 -272 -160 -87 -86 -131 -163 -160 -276
-19 -73 -20 -113 -20 -744 0 -631 1 -671 20 -744 29 -113 73 -190 160 -276 86
-87 163 -131 276 -160 98 -25 190 -25 288 0 113 29 190 73 276 160 87 86 131
163 160 276 19 73 20 113 20 744 0 631 -1 671 -20 744 -11 43 -34 105 -52 139
-42 81 -164 203 -245 245 -132 69 -291 88 -431 52z m258 -414 c21 -13 48 -42
61 -63 l24 -38 0 -666 0 -665 -27 -41 c-41 -62 -90 -88 -168 -88 -78 0 -127
26 -168 88 l-27 41 -3 643 c-2 438 1 657 8 684 13 48 76 114 122 128 53 16
135 6 178 -23z"/>
<path d="M4372 2380 c-109 -29 -187 -74 -272 -160 -87 -86 -131 -163 -160
-276 -19 -73 -20 -113 -20 -744 0 -631 1 -671 20 -744 29 -113 73 -190 160
-276 86 -87 163 -131 276 -160 98 -25 190 -25 288 0 113 29 190 73 276 160 87
86 131 163 160 276 19 73 20 113 20 744 0 631 -1 671 -20 744 -11 43 -34 105
-52 139 -42 81 -164 203 -245 245 -132 69 -291 88 -431 52z m258 -414 c21 -13
48 -42 61 -63 l24 -38 0 -666 0 -665 -27 -41 c-41 -62 -90 -88 -168 -88 -78 0
-127 26 -168 88 l-27 41 -3 643 c-2 438 1 657 8 684 13 48 76 114 122 128 53
16 135 6 178 -23z"/>
<path d="M2492 1989 c-46 -14 -109 -80 -122 -128 -7 -27 -10 -246 -8 -684 l3
-643 27 -41 c41 -62 90 -88 168 -88 78 0 127 26 168 88 l27 41 0 665 0 666
-24 38 c-47 76 -151 113 -239 86z"/>
<path d="M1692 1589 c-47 -14 -109 -80 -122 -129 -7 -27 -10 -127 -8 -284 l3
-243 27 -40 c41 -62 90 -88 168 -88 78 0 127 26 168 88 l27 41 0 265 c0 263 0
266 -24 304 -47 76 -151 113 -239 86z"/>
<path d="M3292 1589 c-47 -14 -109 -80 -122 -129 -7 -27 -10 -127 -8 -284 l3
-243 27 -40 c41 -62 90 -88 168 -88 78 0 127 26 168 88 l27 41 0 265 c0 263 0
266 -24 304 -47 76 -151 113 -239 86z"/>
</g>
</svg>
